<svg width="131" height="23" viewBox="0 0 131 23" fill="none" xmlns="http://www.w3.org/2000/svg">
<path d="M66.5615 21.299H65.4929C61.6853 21.299 57.8786 21.2774 54.0719 21.3065C52.0466 21.3225 50.5628 20.5053 49.5384 18.7502C46.3936 13.3627 43.2357 7.98304 40.0645 2.6112C39.9506 2.42289 39.8762 2.20446 39.7567 1.94553C41.1746 1.6979 42.151 2.19316 42.8346 3.34938C44.09 5.47539 45.3504 7.59826 46.6158 9.71799C47.1964 10.6922 47.7808 11.6651 48.369 12.6368C48.4717 12.8306 48.6379 12.9832 48.8397 13.069C48.8539 12.7554 48.8736 12.4409 48.8831 12.1274C48.9226 10.8262 48.8831 9.51839 49.012 8.22658C49.3105 5.12702 51.6794 2.5453 54.6481 1.98884C54.9101 1.938 55.176 1.9109 55.4428 1.90787C58.9165 1.90222 62.3895 1.90222 65.862 1.90787C65.9604 1.91416 66.0582 1.92738 66.1548 1.94741C65.9486 3.28912 65.1436 4.02823 63.8762 4.03106C61.6401 4.03106 59.4039 4.01599 57.1677 4.0433C56.3688 4.05171 55.5716 4.11969 54.7828 4.24667C52.9647 4.54326 51.864 5.70136 51.4535 7.42627C51.1993 8.48551 51.1371 9.60312 51.0957 10.6991C51.027 12.5332 51.0298 14.3711 51.0288 16.2062C51.0279 18.0413 51.9798 19.0741 53.8441 19.1306C56.1132 19.2003 58.3842 19.1673 60.6552 19.1758C61.7907 19.1758 62.9262 19.2003 64.0608 19.1673C64.8366 19.1457 65.4213 19.3811 65.7942 20.0929C65.974 20.4375 66.2197 20.7586 66.5615 21.299Z" fill="#24B2D3"/>
<path d="M68.1198 10.4835C68.5406 10.4835 68.9041 10.4835 69.2675 10.4835C72.674 10.4684 76.0805 10.4835 79.4861 10.4204C80.5184 10.4079 81.5462 10.2816 82.5508 10.0438C83.5592 9.79707 84.546 9.37243 84.6787 8.09569C84.8247 6.69938 84.1759 5.27106 82.9679 4.74662C82.1592 4.39636 81.2468 4.13273 80.374 4.11107C76.7707 4.02257 73.1636 4.04046 69.5584 4.01692C68.9634 4.01692 68.3683 4.01692 67.6754 4.01692C67.9578 3.19306 68.4587 2.6272 69.0067 2.12818C69.2176 1.93987 69.6253 1.8975 69.9426 1.89656C73.2823 1.88526 76.6219 1.87396 79.9616 1.91256C81.3739 1.92857 82.7448 2.19503 84.0215 2.84375C85.2227 3.46005 86.1459 4.5084 86.6053 5.77786C87.0647 7.04732 87.0263 8.44368 86.4978 9.68597C85.9197 11.022 84.8218 11.7282 83.4679 12.069C82.7627 12.247 82.0358 12.3383 81.1423 12.5002C83.5724 15.468 86.0619 18.2107 88.4863 21.2905C87.5721 21.2905 86.8857 21.3216 86.1974 21.2802C85.6542 21.2482 85.335 20.8367 85.0149 20.4394C83.063 18.0243 81.0867 15.6299 79.1566 13.1989C78.7404 12.6744 78.3092 12.4607 77.6416 12.4729C75.4375 12.5125 73.2333 12.4871 71.0291 12.4908C70.7363 12.4908 70.4444 12.5153 70.0612 12.5323V21.2274H68.197C67.9795 20.5797 67.8985 12.247 68.1198 10.4835Z" fill="#24B2D3"/>
<path d="M113.502 1.96907H115.607V3.09233C115.607 6.36326 115.595 9.63419 115.612 12.9051C115.619 14.1385 115.666 15.3739 115.735 16.6063C115.829 18.2606 116.676 19.1127 118.344 19.1306C121.982 19.1702 125.621 19.1589 129.259 19.173C129.611 19.173 129.962 19.2059 130.5 19.2323C130.049 19.9121 129.739 20.4563 129.343 20.9365C129.182 21.1295 128.833 21.2576 128.568 21.2604C124.896 21.288 121.224 21.2984 117.552 21.2915C116.154 21.2915 115.153 20.5655 114.458 19.4027C113.67 18.0846 112.917 16.7504 112.146 15.4247C109.698 11.216 107.249 7.00791 104.801 2.80045C104.654 2.54718 104.519 2.28543 104.375 2.01238C105.962 1.69414 106.767 2.04063 107.571 3.39833C109.301 6.32654 111.025 9.25883 112.742 12.1952C112.919 12.4974 113.118 12.7884 113.306 13.085L113.508 13.0341L113.502 1.96907Z" fill="#24B2D3"/>
<path d="M38.3198 3.89264C38.7727 4.64588 39.138 5.23246 39.4798 5.83128C39.7425 6.29076 39.4534 6.66267 39.236 7.03458C37.9429 9.25286 36.6486 11.4708 35.353 13.6885C35.1892 13.9709 35.0442 14.2609 34.8389 14.6451C35.1958 14.6667 35.4462 14.6959 35.6967 14.6959C38.4676 14.6959 41.2386 14.7176 44.0086 14.679C44.7619 14.6686 45.2948 14.8673 45.6338 15.5584C45.8042 15.9077 46.0443 16.2231 46.3277 16.6722H33.6328C32.8476 17.9904 32.0736 19.2342 31.3599 20.5119C31.0426 21.0768 30.6378 21.3414 29.9966 21.3084C29.4985 21.283 28.9985 21.3037 28.3187 21.3037C31.6038 15.4445 34.934 9.75659 38.3198 3.89264Z" fill="#24B2D3"/>
<path d="M111.196 16.7034H98.4583C97.7295 17.9462 96.9829 19.1646 96.2927 20.414C95.9472 21.042 95.5046 21.364 94.7759 21.3103C94.291 21.2746 93.8004 21.3037 93.1432 21.3037L103.177 3.86914C103.648 4.6704 104.017 5.28146 104.364 5.91606C104.602 6.34823 104.291 6.68625 104.097 7.02049C102.809 9.2416 101.508 11.4561 100.214 13.6744C100.05 13.9569 99.9026 14.2487 99.686 14.6489C100.026 14.6687 100.274 14.696 100.521 14.696C103.259 14.696 105.997 14.7299 108.733 14.6743C109.613 14.6564 110.211 14.8937 110.579 15.6997C110.714 15.9944 110.919 16.258 111.196 16.7034Z" fill="#24B2D3"/>
<path d="M89.7678 1.93707H91.5003C91.7215 2.65453 91.7827 19.9536 91.5662 21.2312C91.4481 21.2612 91.3278 21.2817 91.2065 21.2924C90.7433 21.3 90.2791 21.2924 89.8328 21.2924C89.5974 20.5561 89.5381 3.1865 89.7678 1.93707Z" fill="#24B2D3"/>
<path d="M65.5607 10.6793C65.5385 10.7665 65.5112 10.8524 65.4787 10.9363C64.6191 12.6603 64.6191 12.665 62.7021 12.6707C59.8379 12.6763 56.9734 12.6763 54.1086 12.6707C53.7829 12.6707 53.4561 12.6443 53.0729 12.6264V10.7169C53.7913 10.5117 64.4129 10.4684 65.5607 10.6793Z" fill="#24B2D3"/>
<path d="M6.88821 18.8256C9.15262 19.4093 11.434 19.5374 13.7088 18.9141C16.233 18.2221 18.2282 16.7834 19.4946 14.4672C20.5896 12.4607 20.7186 10.3922 19.5002 8.36972C18.2103 6.22582 16.2349 5.44528 13.8509 6.1891C13.0685 6.43296 12.3501 6.88773 11.611 7.26341C11.4528 7.34344 11.1685 7.45172 10.9802 7.52422C10.9658 7.52988 10.9501 7.531 10.9351 7.52745C10.9201 7.52389 10.9066 7.51582 10.8963 7.50432C10.8861 7.49283 10.8796 7.47846 10.8777 7.46316C10.8759 7.44786 10.8788 7.43237 10.886 7.41876C11.9217 5.47447 13.4941 4.25329 15.8131 4.07722C17.5079 3.94917 19.1264 4.17137 20.6932 4.87094C22.7316 5.77859 23.8784 7.36886 24.2513 9.50523C24.7729 12.4928 24.3454 15.3645 22.8502 18.0215C21.2807 20.8123 18.8176 22.3404 15.6691 22.6662C11.6006 23.087 7.92673 22.0711 4.80739 19.3397C4.45243 19.029 4.01932 18.5657 3.69354 18.223C3.6707 18.199 3.65619 18.1683 3.65215 18.1354C3.64811 18.1025 3.65477 18.0692 3.67113 18.0403C3.6875 18.0115 3.7127 17.9887 3.74302 17.9753C3.77333 17.9619 3.80716 17.9586 3.83948 17.966C4.57483 18.1401 6.07942 18.6175 6.88821 18.8256Z" fill="#24B2D3"/>
<path d="M11.9867 7.85564C11.9645 7.856 11.9428 7.84924 11.9248 7.83637C11.9068 7.82349 11.8934 7.80517 11.8865 7.7841C11.8797 7.76303 11.8797 7.74031 11.8868 7.7193C11.8938 7.69828 11.9073 7.68007 11.9255 7.66733C13.2079 6.81994 14.6861 6.37177 16.2707 6.6467C16.7176 6.71802 17.1459 6.87723 17.5309 7.11512C17.9158 7.35301 18.2498 7.66487 18.5135 8.03265C19.8401 9.8489 20.1744 11.8083 19.1001 13.8589C17.5465 16.8239 14.9968 18.3341 11.7325 18.69C9.3494 18.9499 7.0944 18.4226 4.93638 17.4189C-0.18375 14.9784 0.469683 8.1607 0.593967 7.26341C0.592344 7.23844 0.600707 7.21385 0.617217 7.19504C0.633727 7.17624 0.65703 7.16476 0.682002 7.16314C0.706973 7.16151 0.731566 7.16988 0.750372 7.18639C0.769177 7.20289 0.780653 7.2262 0.782276 7.25117C1.0299 8.14752 1.62025 10.2001 2.0882 11.088C3.44403 13.6603 5.63406 14.8918 8.46717 15.0895C9.83562 15.2007 11.2116 15.0041 12.4942 14.5143C13.8123 13.9992 14.8546 13.1509 15.558 11.9118C16.1229 10.9204 16.0796 9.93458 15.4638 8.98079C14.978 8.23509 14.3123 7.78409 13.3802 7.83681C12.9489 7.86035 12.4123 7.82928 11.9867 7.85564Z" fill="#24B2D3"/>
<path d="M10.2844 7.3858C10.2689 7.40275 10.2489 7.4149 10.2267 7.42079C10.2045 7.42668 10.1811 7.42607 10.1593 7.41902C10.1375 7.41197 10.1181 7.39879 10.1036 7.38105C10.089 7.3633 10.0799 7.34174 10.0772 7.31895C9.90117 5.67501 10.4633 4.33895 11.5385 3.17615C14.0958 0.424007 19.8957 -1.50993 24.7117 2.64982C26.3707 4.08097 27.2002 6.3388 27.365 8.49211C27.6229 11.8817 25.3632 17.2193 23.9151 18.2211C23.8986 18.2351 23.8777 18.2429 23.8561 18.2433C23.8344 18.2437 23.8133 18.2366 23.7963 18.2232C23.7792 18.2098 23.7673 18.191 23.7626 18.1698C23.7578 18.1487 23.7605 18.1266 23.7701 18.1072C23.8812 17.8125 23.9669 17.5865 24.0526 17.3596C24.7814 15.3701 25.287 13.3307 25.1382 11.1972C25.0794 10.2664 24.9113 9.34587 24.6373 8.45445C23.8078 5.8266 21.8974 4.36061 19.2799 3.72507C17.9024 3.38988 16.4958 3.26748 15.1098 3.54241C13.1702 3.9275 11.7579 5.11291 10.726 6.77097C10.5939 6.98638 10.4463 7.19187 10.2844 7.3858V7.3858Z" fill="#24B2D3"/>
<path d="M2.49023 5.00182C2.88192 4.91426 3.27548 4.83611 3.66434 4.73725C4.55975 4.50939 5.05689 3.9021 5.26497 3.02646C5.3337 2.73175 5.39302 2.43517 5.46364 2.10657C5.48718 2.19319 5.50601 2.25157 5.51919 2.31088C5.59734 2.64984 5.66513 2.99162 5.75175 3.32775C5.96077 4.16008 6.5257 4.64874 7.33355 4.86718C7.64426 4.95098 7.96438 5.0037 8.27509 5.07055C8.28837 5.0728 8.30105 5.07772 8.31238 5.085C8.3237 5.09228 8.33344 5.10178 8.341 5.11292C8.04065 5.18166 7.74312 5.26451 7.43994 5.31536C6.38259 5.49613 5.75646 6.14203 5.54084 7.25588C5.49521 7.50595 5.43707 7.75357 5.36666 7.99782C5.28945 7.64851 5.20754 7.3039 5.13598 6.94988C4.93825 5.99986 4.33943 5.44906 3.4186 5.22214C3.13613 5.15341 2.85367 5.10445 2.57121 5.04607C2.54484 5.04042 2.51848 5.03101 2.49212 5.02348L2.49023 5.00182Z" fill="#24B2D3"/>
</svg>
