<svg width="130" height="23" viewBox="0 0 130 23" fill="none" xmlns="http://www.w3.org/2000/svg">
<path d="M66.0615 21.0567H64.9928C61.1852 21.0567 57.3785 21.035 53.5719 21.0642C51.5466 21.0802 50.0627 20.263 49.0383 18.5079C45.8935 13.1204 42.7356 7.74073 39.5645 2.36889C39.4505 2.18059 39.3762 1.96215 39.2566 1.70322C40.6746 1.45559 41.6509 1.95085 42.3345 3.10707C43.5899 5.23308 44.8503 7.35595 46.1158 9.47568C46.6964 10.4499 47.2808 11.4228 47.8689 12.3945C47.9716 12.5883 48.1378 12.7409 48.3397 12.8266C48.3538 12.5131 48.3736 12.1986 48.383 11.8851C48.4225 10.5839 48.383 9.27608 48.512 7.98427C48.8105 4.88471 51.1794 2.30299 54.1481 1.74653C54.41 1.69569 54.676 1.66859 54.9427 1.66556C58.4164 1.65991 61.8895 1.65991 65.3619 1.66556C65.4603 1.67185 65.5582 1.68507 65.6547 1.7051C65.4485 3.04681 64.6435 3.78592 63.3762 3.78875C61.14 3.78875 58.9038 3.77368 56.6677 3.80099C55.8687 3.8094 55.0715 3.87738 54.2827 4.00436C52.4646 4.30095 51.3639 5.45905 50.9534 7.18396C50.6992 8.2432 50.6371 9.36081 50.5956 10.4568C50.5269 12.2909 50.5297 14.1288 50.5288 15.9639C50.5278 17.7989 51.4797 18.8318 53.344 18.8883C55.6131 18.958 57.8841 18.925 60.1551 18.9335C61.2906 18.9335 62.4262 18.958 63.5607 18.925C64.3365 18.9034 64.9212 19.1388 65.2941 19.8506C65.4739 20.1952 65.7197 20.5162 66.0615 21.0567Z" fill="white"/>
<path d="M67.6198 10.2411C68.0407 10.2411 68.4041 10.2411 68.7676 10.2411C72.1741 10.2261 75.5806 10.2411 78.9862 10.1781C80.0185 10.1656 81.0463 10.0393 82.0509 9.80144C83.0593 9.55476 84.046 9.13012 84.1788 7.85338C84.3247 6.45707 83.676 5.02875 82.468 4.50431C81.6592 4.15405 80.7469 3.89042 79.874 3.86876C76.2707 3.78026 72.6637 3.79815 69.0585 3.77461C68.4634 3.77461 67.8684 3.77461 67.1754 3.77461C67.4579 2.95075 67.9588 2.38489 68.5068 1.88587C68.7177 1.69756 69.1254 1.65519 69.4427 1.65425C72.7823 1.64295 76.122 1.63165 79.4616 1.67025C80.874 1.68626 82.2449 1.95272 83.5216 2.60144C84.7228 3.21774 85.6459 4.26609 86.1054 5.53555C86.5648 6.80501 86.5264 8.20137 85.9979 9.44366C85.4197 10.7797 84.3219 11.4859 82.968 11.8267C82.2627 12.0047 81.5359 12.096 80.6423 12.2579C83.0725 15.2257 85.5619 17.9684 87.9864 21.0482C87.0722 21.0482 86.3858 21.0793 85.6975 21.0379C85.1542 21.0058 84.835 20.5944 84.5149 20.1971C82.5631 17.782 80.5868 15.3876 78.6566 12.9566C78.2405 12.4321 77.8092 12.2184 77.1417 12.2306C74.9375 12.2702 72.7334 12.2448 70.5292 12.2485C70.2364 12.2485 69.9445 12.273 69.5613 12.2899V20.9851H67.697C67.4795 20.3373 67.3986 12.0047 67.6198 10.2411Z" fill="white"/>
<path d="M113.002 1.72676H115.107V2.85002C115.107 6.12095 115.095 9.39188 115.112 12.6628C115.119 13.8962 115.166 15.1315 115.235 16.364C115.329 18.0183 116.176 18.8704 117.844 18.8883C121.482 18.9279 125.121 18.9166 128.759 18.9307C129.111 18.9307 129.462 18.9636 130 18.99C129.549 19.6698 129.239 20.214 128.843 20.6942C128.682 20.8872 128.333 21.0153 128.068 21.0181C124.396 21.0457 120.724 21.0561 117.052 21.0492C115.654 21.0492 114.653 20.3232 113.958 19.1604C113.17 17.8423 112.417 16.5081 111.646 15.1824C109.198 10.9737 106.75 6.7656 104.302 2.55814C104.154 2.30487 104.019 2.04312 103.875 1.77007C105.462 1.45183 106.267 1.79832 107.071 3.15603C108.801 6.08423 110.525 9.01652 112.242 11.9529C112.42 12.2551 112.618 12.5461 112.807 12.8426L113.008 12.7918L113.002 1.72676Z" fill="white"/>
<path d="M37.8198 3.65033C38.2727 4.40357 38.638 4.99015 38.9798 5.58897C39.2425 6.04845 38.9534 6.42036 38.736 6.79227C37.4429 9.01055 36.1486 11.2285 34.853 13.4462C34.6892 13.7286 34.5442 14.0186 34.3389 14.4028C34.6958 14.4244 34.9462 14.4536 35.1967 14.4536C37.9676 14.4536 40.7386 14.4753 43.5086 14.4367C44.2619 14.4263 44.7948 14.625 45.1338 15.3161C45.3042 15.6654 45.5443 15.9808 45.8277 16.4299H33.1328C32.3476 17.7481 31.5736 18.9919 30.8599 20.2696C30.5426 20.8345 30.1378 21.0991 29.4966 21.0661C28.9985 21.0407 28.4985 21.0614 27.8187 21.0614C31.1038 15.2022 34.434 9.51428 37.8198 3.65033Z" fill="white"/>
<path d="M110.696 16.461H97.9582C97.2295 17.7039 96.4828 18.9222 95.7927 20.1717C95.4471 20.7997 95.0046 21.1217 94.2758 21.068C93.7909 21.0322 93.3004 21.0614 92.6432 21.0614L102.677 3.62683C103.148 4.42809 103.517 5.03915 103.864 5.67375C104.102 6.10592 103.791 6.44394 103.597 6.77818C102.309 8.99929 101.008 11.2138 99.7142 13.4321C99.5504 13.7146 99.4025 14.0064 99.186 14.4066C99.5259 14.4264 99.7735 14.4537 100.021 14.4537C102.759 14.4537 105.497 14.4876 108.233 14.432C109.113 14.4141 109.711 14.6514 110.079 15.4574C110.214 15.7521 110.419 16.0157 110.696 16.461Z" fill="white"/>
<path d="M89.2678 1.69476H91.0003C91.2215 2.41222 91.2827 19.7112 91.0662 20.9889C90.9481 21.0189 90.8278 21.0394 90.7065 21.0501C90.2433 21.0577 89.7791 21.0501 89.3328 21.0501C89.0974 20.3138 89.0381 2.94419 89.2678 1.69476Z" fill="white"/>
<path d="M65.0606 10.437C65.0385 10.5242 65.0111 10.6101 64.9787 10.694C64.1191 12.418 64.1191 12.4227 62.2021 12.4283C59.3379 12.434 56.4734 12.434 53.6086 12.4283C53.2828 12.4283 52.9561 12.402 52.5729 12.3841V10.4746C53.2913 10.2694 63.9129 10.2261 65.0606 10.437Z" fill="white"/>
<path d="M6.38821 18.5833C8.65263 19.167 10.934 19.2951 13.2088 18.6718C15.733 17.9798 17.7282 16.5411 18.9946 14.2249C20.0896 12.2184 20.2186 10.1499 19.0002 8.12742C17.7103 5.98352 15.7349 5.20297 13.3509 5.94679C12.5685 6.19066 11.8501 6.64542 11.111 7.0211C10.9528 7.10113 10.6685 7.20941 10.4802 7.28191C10.4658 7.28757 10.4501 7.28869 10.4351 7.28514C10.4201 7.28158 10.4066 7.27351 10.3963 7.26201C10.3861 7.25052 10.3796 7.23615 10.3777 7.22085C10.3759 7.20555 10.3788 7.19006 10.386 7.17645C11.4217 5.23216 12.9941 4.01098 15.3131 3.83491C17.0079 3.70686 18.6264 3.92906 20.1932 4.62863C22.2316 5.53628 23.3784 7.12655 23.7513 9.26292C24.2729 12.2504 23.8454 15.1222 22.3502 17.7792C20.7807 20.5699 18.3176 22.0981 15.1691 22.4238C11.1006 22.8447 7.42673 21.8288 4.30739 19.0974C3.95243 18.7867 3.51932 18.3234 3.19354 17.9807C3.1707 17.9567 3.15619 17.926 3.15215 17.8931C3.14811 17.8602 3.15477 17.8268 3.17113 17.798C3.1875 17.7692 3.2127 17.7464 3.24302 17.733C3.27333 17.7196 3.30716 17.7163 3.33948 17.7237C4.07483 17.8978 5.57942 18.3752 6.38821 18.5833Z" fill="white"/>
<path d="M11.4867 7.61333C11.4645 7.61369 11.4428 7.60693 11.4248 7.59406C11.4068 7.58118 11.3934 7.56286 11.3865 7.54179C11.3797 7.52072 11.3797 7.49801 11.3868 7.47699C11.3938 7.45597 11.4073 7.43776 11.4255 7.42502C12.7079 6.57763 14.1861 6.12946 15.7707 6.40439C16.2176 6.47571 16.6459 6.63492 17.0309 6.87281C17.4158 7.1107 17.7498 7.42256 18.0135 7.79034C19.3401 9.60659 19.6744 11.5659 18.6001 13.6166C17.0465 16.5816 14.4968 18.0918 11.2325 18.4477C8.8494 18.7076 6.5944 18.1803 4.43638 17.1766C-0.68375 14.7361 -0.030317 7.91839 0.0939671 7.0211C0.092344 6.99613 0.100707 6.97154 0.117217 6.95273C0.133727 6.93393 0.15703 6.92245 0.182002 6.92083C0.206973 6.9192 0.231566 6.92757 0.250372 6.94408C0.269177 6.96059 0.280653 6.98389 0.282276 7.00886C0.529903 7.90521 1.12025 9.95778 1.5882 10.8457C2.94403 13.418 5.13406 14.6495 7.96717 14.8472C9.33562 14.9584 10.7116 14.7618 11.9942 14.2719C13.3123 13.7569 14.3546 12.9086 15.058 11.6695C15.6229 10.6781 15.5796 9.69227 14.9638 8.73848C14.478 7.99278 13.8123 7.54178 12.8802 7.5945C12.4489 7.61804 11.9123 7.58697 11.4867 7.61333Z" fill="white"/>
<path d="M9.78432 7.14349C9.76885 7.16044 9.74884 7.17259 9.72666 7.17848C9.70448 7.18437 9.68108 7.18376 9.65924 7.17671C9.6374 7.16966 9.61805 7.15648 9.6035 7.13874C9.58895 7.12099 9.57981 7.09943 9.57718 7.07664C9.40111 5.4327 9.96321 4.09664 11.0385 2.93384C13.5957 0.181697 19.3956 -1.75224 24.2116 2.40751C25.8706 3.83866 26.7001 6.09649 26.8649 8.2498C27.1229 11.6394 24.8632 16.977 23.4151 17.9788C23.3985 17.9928 23.3777 18.0006 23.356 18.001C23.3344 18.0013 23.3132 17.9942 23.2962 17.9809C23.2792 17.9675 23.2673 17.9486 23.2625 17.9275C23.2578 17.9064 23.2604 17.8843 23.2701 17.8649C23.3812 17.5702 23.4669 17.3442 23.5525 17.1173C24.2813 15.1278 24.7869 13.0884 24.6381 10.9549C24.5794 10.0241 24.4112 9.10356 24.1372 8.21214C23.3077 5.58429 21.3973 4.1183 18.7798 3.48276C17.4024 3.14757 15.9957 3.02517 14.6097 3.3001C12.6702 3.68519 11.2578 4.8706 10.2259 6.52866C10.0939 6.74407 9.94627 6.94956 9.78432 7.14349Z" fill="white"/>
<path d="M1.99023 4.75951C2.38192 4.67195 2.77548 4.5938 3.16434 4.49494C4.05975 4.26708 4.55689 3.65979 4.76497 2.78415C4.8337 2.48944 4.89302 2.19286 4.96364 1.86426C4.98718 1.95088 5.00601 2.00926 5.01919 2.06857C5.09734 2.40753 5.16513 2.74931 5.25175 3.08544C5.46077 3.91777 6.0257 4.40643 6.83355 4.62487C7.14426 4.70867 7.46438 4.76139 7.77509 4.82824C7.78837 4.8305 7.80105 4.83541 7.81238 4.84269C7.8237 4.84997 7.83344 4.85947 7.841 4.87061C7.54065 4.93935 7.24312 5.0222 6.93994 5.07305C5.88259 5.25382 5.25646 5.89972 5.04084 7.01357C4.99521 7.26364 4.93707 7.51126 4.86666 7.75551C4.78945 7.4062 4.70754 7.06159 4.63598 6.70757C4.43825 5.75755 3.83943 5.20675 2.9186 4.97983C2.63613 4.9111 2.35367 4.86214 2.07121 4.80376C2.04484 4.79812 2.01848 4.7887 1.99212 4.78117L1.99023 4.75951Z" fill="white"/>
</svg>
